<?xml version="1.0" encoding="windows-1252"?>
<!DOCTYPE svg PUBLIC "-//W3C//DTD SVG 1.1//EN" "http://www.w3.org/Graphics/SVG/1.1/DTD/svg11.dtd">
<!-- Uploaded to: SVG Repo, www.svgrepo.com, Transformed by: SVG Repo Mixer Tools -->
<svg fill="#000000" version="1.1" xmlns="http://www.w3.org/2000/svg" viewBox="0 0 403.142 403.142" xmlns:xlink="http://www.w3.org/1999/xlink" enable-background="new 0 0 403.142 403.142">
  <g>
    <path d="m392.908,38.742c-6.61-6.611-15.399-10.251-24.749-10.251-9.349,0-18.138,3.641-24.749,10.251l-168.294,168.293c-1.273,1.273-2.179,2.867-2.622,4.612l-12.021,47.376c-0.137,0.542-0.212,1.088-0.257,1.634h-17.724v28.499h28.499v-17.724c0.547-0.045 1.093-0.119 1.634-0.256l47.375-12.021c1.746-0.443 3.339-1.349 4.612-2.622l168.296-168.294c13.645-13.647 13.645-35.851 0-49.497zm-24.749,9.748c4.007,0 7.773,1.56 10.606,4.393 5.849,5.849 5.849,15.365 0,21.213l-.707,.707-21.213-21.213 .707-.707c2.833-2.833 6.6-4.393 10.607-4.393zm-171.83,165.616l146.374-146.373 21.213,21.213-146.374,146.373-21.213-21.213zm-8.775,19.509l10.48,10.48-14.043,3.563 3.563-14.043z"/>
    <rect width="28.499" x="113.994" y="289.156" height="28.499"/>
    <rect width="28.499" x="85.496" y="317.655" height="28.499"/>
    <rect width="28.499" x="56.997" y="346.153" height="28.498"/>
    <rect width="28.499" x="28.499" y="317.655" height="28.499"/>
    <rect width="28.499" x="0" y="289.156" height="28.499"/>
  </g>
</svg>